<svg id="Grupo_52" data-name="Grupo 52" xmlns="http://www.w3.org/2000/svg" xmlns:xlink="http://www.w3.org/1999/xlink" width="157.643" height="130.751" viewBox="0 0 157.643 130.751">
  <defs>
    <clipPath id="clip-path">
      <rect id="Retângulo_45" data-name="Retângulo 45" width="157.643" height="130.751" fill="#52a8fe"/>
    </clipPath>
  </defs>
  <g id="Grupo_51" data-name="Grupo 51" clip-path="url(#clip-path)">
    <path id="Caminho_11" data-name="Caminho 11" d="M116.151.005A43.042,43.042,0,0,1,132.522,3.1q1.167.476,2.317,1.035a39.392,39.392,0,0,1,14.482,12.092,41.515,41.515,0,0,1,3.372,5.407,43.793,43.793,0,0,1,2.144,35.618q-.721,1.864-1.622,3.65a40.5,40.5,0,0,1-13.921,15.566v33.779l-26.732-26.73L78.146,83.5a46.266,46.266,0,0,1-13.512-1.917,39.274,39.274,0,0,1-5.656-2.2C48.659,74.4,41.44,64.9,38.42,54.045A45.548,45.548,0,0,1,42.742,19.21a39.668,39.668,0,0,1,3.61-5.17C53.271,5.658,63.875,0,78.15,0ZM36.137,20.816A41.264,41.264,0,0,0,22.8,24.641,39.39,39.39,0,0,0,8.322,36.731a41.609,41.609,0,0,0-3.371,5.407A43.789,43.789,0,0,0,2.806,77.757q.721,1.863,1.621,3.65A40.506,40.506,0,0,0,18.349,96.972v33.78l26.732-26.73,34.417-.016a46.278,46.278,0,0,0,13.511-1.917,39.431,39.431,0,0,0,5.656-2.2,37.45,37.45,0,0,0,12.8-10.2l-1.053-1.054-32.275-.015a50.87,50.87,0,0,1-16.846-2.741,42.482,42.482,0,0,1-13.566-7.784A46.815,46.815,0,0,1,32.278,49.913a50.888,50.888,0,0,1,3.859-29.1m39.187,13.7A6.625,6.625,0,1,1,68.7,41.14a6.626,6.626,0,0,1,6.625-6.625m21.874,0a6.625,6.625,0,1,1-6.626,6.625A6.626,6.626,0,0,1,97.2,34.515m21.874,0a6.625,6.625,0,1,1-6.626,6.625,6.626,6.626,0,0,1,6.626-6.625m-2.925-24.178-38,0A33.514,33.514,0,0,0,63.7,13.393,29.251,29.251,0,0,0,48.381,32.236a35.146,35.146,0,0,0-.8,3.646c-1.539,9.348.62,19.57,6.732,26.926,5.14,6.184,13.08,10.358,23.838,10.358l38.715-.014,12.061,12.061V70.584a42.2,42.2,0,0,0,10.955-8.417,29.692,29.692,0,0,0,7.2-16.233,33.225,33.225,0,0,0,.24-4.834c-.224-9.317-4.431-18.607-11.764-24.386a28.237,28.237,0,0,0-2.552-1.8,31.37,31.37,0,0,0-16.852-4.581" transform="translate(0 0)" fill="#52a8fe"/>
  </g>
</svg>
