<svg xmlns="http://www.w3.org/2000/svg" xmlns:xlink="http://www.w3.org/1999/xlink" width="192.084" height="71.038" viewBox="0 0 192.084 71.038">
  <defs>
    <clipPath id="clip-path">
      <rect id="Retângulo_57" data-name="Retângulo 57" width="192.084" height="71.038" fill="none"/>
    </clipPath>
  </defs>
  <g id="Grupo_64" data-name="Grupo 64" transform="translate(-1370 -2)">
    <g id="Grupo_63" data-name="Grupo 63" transform="translate(1370 2)" clip-path="url(#clip-path)">
      <path id="Caminho_21" data-name="Caminho 21" d="M707.4,252.617l.824-1.472a.448.448,0,0,1,.6-.107,5.218,5.218,0,0,0,2.491.975,1.1,1.1,0,0,0,1.21-1.064c0-.744-.614-1.311-1.808-1.792-1.51-.6-3.4-1.792-3.4-3.919,0-1.754,1.351-3.527,4.054-3.527a6.5,6.5,0,0,1,3.756,1.33.454.454,0,0,1,.106.567l-.9,1.365c-.122.2-.439.355-.6.231a5.46,5.46,0,0,0-2.51-1.064,1.02,1.02,0,0,0-1.106.905c0,.656.526,1.152,1.912,1.719,1.369.551,3.544,1.631,3.544,4.043a3.87,3.87,0,0,1-4.142,3.67,5.538,5.538,0,0,1-3.948-1.365c-.175-.177-.229-.247-.088-.5Z" transform="translate(-640.019 -218.715)" fill="#dc091d"/>
      <path id="Caminho_22" data-name="Caminho 22" d="M799.725,253.864l5.493-11.933a.356.356,0,0,1,.3-.2h.175a.356.356,0,0,1,.3.2l5.492,11.933a.313.313,0,0,1-.3.462h-1.949c-.316,0-.457-.107-.614-.443l-.633-1.4h-4.772l-.633,1.419a.655.655,0,0,1-.633.425h-1.93a.313.313,0,0,1-.3-.462Zm7.213-3.793-1.334-2.925h-.018l-1.316,2.925h2.669Z" transform="translate(-723.607 -218.737)" fill="#dc091d"/>
      <path id="Caminho_23" data-name="Caminho 23" d="M934.7,203.581a.345.345,0,0,1,.333-.336h2.159a.333.333,0,0,1,.332.336v7.181A2.159,2.159,0,0,0,939.684,213a2.188,2.188,0,0,0,2.193-2.235v-7.181a.334.334,0,0,1,.333-.336h2.159a.345.345,0,0,1,.332.336V210.9a5,5,0,0,1-10,0v-7.323Zm3.281-1.6-.369-.744a.273.273,0,0,1,.106-.336l2.983-1.843c.106-.07.369-.107.457.054l.6,1.045a.368.368,0,0,1-.106.532l-3.193,1.453a.3.3,0,0,1-.473-.159Z" transform="translate(-845.774 -180.069)" fill="#dc091d"/>
      <path id="Caminho_24" data-name="Caminho 24" d="M1069.726,243.934a.331.331,0,0,1,.316-.336h4.281a6.207,6.207,0,0,1,0,12.414h-4.281a.331.331,0,0,1-.316-.336V243.934Zm4.421,9.451a3.595,3.595,0,0,0,0-7.181h-1.686v7.181Z" transform="translate(-967.955 -220.423)" fill="#dc091d"/>
      <path id="Caminho_25" data-name="Caminho 25" d="M1205.286,243.935a.334.334,0,0,1,.332-.336h7.266a.333.333,0,0,1,.333.336v1.932a.334.334,0,0,1-.333.336h-4.86v2.2h4a.345.345,0,0,1,.333.336v1.934a.333.333,0,0,1-.333.336h-4V253.4h4.86a.333.333,0,0,1,.333.336v1.932a.334.334,0,0,1-.333.336h-7.266a.333.333,0,0,1-.332-.336V243.935Z" transform="translate(-1090.619 -220.424)" fill="#dc091d"/>
      <path id="Caminho_26" data-name="Caminho 26" d="M715.612,430.129a.334.334,0,0,1,.332-.336h4.089a3.184,3.184,0,0,1,1.736,6.1,3.342,3.342,0,0,1,2.35,2.89,3.593,3.593,0,0,1-3.826,3.422h-4.352a.333.333,0,0,1-.332-.336V430.133Zm4.107,4.7a1.257,1.257,0,0,0,1.228-1.276,1.2,1.2,0,0,0-1.228-1.206h-1.369v2.482Zm.229,4.841a1.28,1.28,0,0,0,1.263-1.295,1.393,1.393,0,0,0-1.438-1.241h-1.422v2.536Z" transform="translate(-647.529 -388.904)" fill="#29845f"/>
      <path id="Caminho_27" data-name="Caminho 27" d="M828.5,430.128a.334.334,0,0,1,.332-.336H836.1a.333.333,0,0,1,.333.336v1.932a.334.334,0,0,1-.333.336h-4.86v2.2h4a.345.345,0,0,1,.332.336v1.934a.333.333,0,0,1-.332.336h-4v2.394h4.86a.333.333,0,0,1,.333.336v1.932a.334.334,0,0,1-.333.336h-7.266a.333.333,0,0,1-.332-.336V430.128Z" transform="translate(-749.682 -388.903)" fill="#29845f"/>
      <path id="Caminho_28" data-name="Caminho 28" d="M936.4,428.224a.331.331,0,0,1,.333-.32h.439l7,6.81h.018V428.42a.334.334,0,0,1,.332-.336h2.106a.345.345,0,0,1,.332.336v11.933a.331.331,0,0,1-.332.32h-.282a.517.517,0,0,1-.229-.089l-6.931-7.038h-.019v6.614a.334.334,0,0,1-.332.336h-2.087a.345.345,0,0,1-.333-.336l-.018-11.933Z" transform="translate(-847.312 -387.194)" fill="#29845f"/>
      <path id="Caminho_29" data-name="Caminho 29" d="M1079.142,430.128a.334.334,0,0,1,.333-.336h7.266a.333.333,0,0,1,.333.336v1.932a.334.334,0,0,1-.333.336h-4.86v2.2h4a.345.345,0,0,1,.332.336v1.934a.333.333,0,0,1-.332.336h-4v2.394h4.86a.333.333,0,0,1,.333.336v1.932a.334.334,0,0,1-.333.336h-7.266a.333.333,0,0,1-.333-.336V430.128Z" transform="translate(-976.475 -388.903)" fill="#29845f"/>
      <path id="Caminho_30" data-name="Caminho 30" d="M1187.23,430.128a.334.334,0,0,1,.333-.336h7.266a.333.333,0,0,1,.333.336v1.932a.334.334,0,0,1-.333.336h-4.86v2.552h4a.345.345,0,0,1,.332.336v1.932a.345.345,0,0,1-.332.336h-4v4.309a.345.345,0,0,1-.333.336h-2.071a.333.333,0,0,1-.333-.336V430.123Z" transform="translate(-1074.28 -388.903)" fill="#29845f"/>
      <path id="Caminho_31" data-name="Caminho 31" d="M1291.073,430.128a.345.345,0,0,1,.333-.336h2.105a.345.345,0,0,1,.332.336v11.737a.345.345,0,0,1-.332.336h-2.105a.345.345,0,0,1-.333-.336Z" transform="translate(-1168.244 -388.903)" fill="#29845f"/>
      <path id="Caminho_32" data-name="Caminho 32" d="M1348.833,427.9a5.862,5.862,0,0,1,4.246,1.649.334.334,0,0,1,.018.5l-1.369,1.437a.306.306,0,0,1-.439,0,3.564,3.564,0,0,0-2.369-.905,3.631,3.631,0,0,0,.016,7.253,3.678,3.678,0,0,0,2.35-.852.342.342,0,0,1,.457.019l1.369,1.472a.355.355,0,0,1-.018.478,5.984,5.984,0,0,1-4.264,1.719,6.384,6.384,0,0,1,0-12.768Z" transform="translate(-1214.775 -387.194)" fill="#29845f"/>
      <path id="Caminho_33" data-name="Caminho 33" d="M1476.042,389.7a.334.334,0,0,1,.333-.336h7.266a.333.333,0,0,1,.332.336v1.932a.334.334,0,0,1-.332.336h-4.86v2.2h4a.345.345,0,0,1,.332.336v1.934a.333.333,0,0,1-.332.336h-4v2.394h4.86a.333.333,0,0,1,.332.336v1.932a.334.334,0,0,1-.332.336h-7.266a.333.333,0,0,1-.333-.336V389.7Zm1.93-1.507-.579-.833c-.088-.124.018-.266.106-.336l2.369-1.843a.365.365,0,0,1,.42,0l2.422,1.843a.274.274,0,0,1,.106.336l-.6.816a.281.281,0,0,1-.369.089l-1.736-1.029-1.755,1.029c-.194.107-.282.07-.386-.07Z" transform="translate(-1335.616 -348.479)" fill="#29845f"/>
      <path id="Caminho_34" data-name="Caminho 34" d="M1583.937,428.224a.331.331,0,0,1,.333-.32h.438l7,6.81h.018V428.42a.334.334,0,0,1,.332-.336h2.106a.345.345,0,0,1,.332.336v11.933a.331.331,0,0,1-.332.32h-.282a.517.517,0,0,1-.229-.089l-6.931-7.038h-.019v6.614a.334.334,0,0,1-.333.336h-2.087a.345.345,0,0,1-.333-.336l-.018-11.933Z" transform="translate(-1433.246 -387.194)" fill="#29845f"/>
      <path id="Caminho_35" data-name="Caminho 35" d="M1723.6,427.9a5.862,5.862,0,0,1,4.246,1.649.334.334,0,0,1,.019.5l-1.369,1.437a.306.306,0,0,1-.439,0,3.564,3.564,0,0,0-2.369-.905,3.631,3.631,0,0,0,.016,7.253,3.679,3.679,0,0,0,2.35-.852.342.342,0,0,1,.457.019l1.369,1.472a.355.355,0,0,1-.018.478,5.983,5.983,0,0,1-4.264,1.719,6.384,6.384,0,0,1,0-12.768Z" transform="translate(-1553.888 -387.194)" fill="#29845f"/>
      <path id="Caminho_36" data-name="Caminho 36" d="M1850.81,430.128a.345.345,0,0,1,.333-.336h2.105a.345.345,0,0,1,.332.336v11.737a.345.345,0,0,1-.332.336h-2.105a.345.345,0,0,1-.333-.336Z" transform="translate(-1674.729 -388.903)" fill="#29845f"/>
      <path id="Caminho_37" data-name="Caminho 37" d="M1894.714,440.033l5.493-11.933a.356.356,0,0,1,.3-.2h.175a.356.356,0,0,1,.3.2l5.493,11.933a.313.313,0,0,1-.3.462h-1.949c-.316,0-.457-.107-.614-.443l-.633-1.4H1898.2l-.633,1.418a.655.655,0,0,1-.633.425h-1.93a.313.313,0,0,1-.3-.462Zm7.213-3.793-1.334-2.925h-.018l-1.316,2.925h2.669Z" transform="translate(-1714.422 -387.194)" fill="#29845f"/>
      <path id="Caminho_38" data-name="Caminho 38" d="M203.849,205.536V167.649l32.572-10.71v37.887Zm2.309-36.193v32.98l27.955-9.192V160.151Z" transform="translate(-184.455 -142.008)" fill="#29845f"/>
      <path id="Caminho_39" data-name="Caminho 39" d="M32.572,48.6,0,37.887V0L32.572,10.71V48.6ZM2.309,36.193l27.955,9.192V12.4L2.309,3.212Z" fill="#dc091d"/>
      <path id="Caminho_40" data-name="Caminho 40" d="M234.113,380.356v14.938l-27.955,9.192V380.356h-2.309V407.7l32.572-10.71V380.356Z" transform="translate(-184.456 -344.17)" fill="#29845f"/>
      <path id="Caminho_41" data-name="Caminho 41" d="M713.053,687.561a2.857,2.857,0,1,1,2.855,2.945,2.865,2.865,0,0,1-2.855-2.945m2.855,2.413a2.427,2.427,0,1,0-2.272-2.413,2.291,2.291,0,0,0,2.272,2.413" transform="translate(-645.215 -619.468)" fill="#888787"/>
      <path id="Caminho_42" data-name="Caminho 42" d="M803.962,689.94a.351.351,0,0,1-.169-.278.256.256,0,0,1,.254-.262.543.543,0,0,1,.313.143,2.325,2.325,0,0,0,1.343.413,1.02,1.02,0,0,0,1.157-1c0-.616-.516-.92-1.224-1.258-.845-.4-1.554-.777-1.554-1.654a1.516,1.516,0,0,1,1.707-1.451,2.646,2.646,0,0,1,1.216.278c.16.084.262.169.262.313a.252.252,0,0,1-.262.262.606.606,0,0,1-.228-.076,2.1,2.1,0,0,0-.98-.245c-.743,0-1.132.43-1.132.9,0,.632.692.912,1.326,1.215.811.388,1.453.81,1.453,1.679a1.614,1.614,0,0,1-1.774,1.561,2.691,2.691,0,0,1-1.707-.548Z" transform="translate(-727.323 -619.468)" fill="#888787"/>
      <path id="Caminho_43" data-name="Caminho 43" d="M855.745,690.951v-5.172a.271.271,0,0,1,.27-.287H858.7a.255.255,0,0,1,.27.262.258.258,0,0,1-.27.253h-2.391v2.059h2.17a.254.254,0,1,1,0,.507h-2.17v2.143H858.8a.255.255,0,0,1,.27.262.259.259,0,0,1-.27.253h-2.77a.272.272,0,0,1-.287-.278Z" transform="translate(-774.332 -620.276)" fill="#888787"/>
      <path id="Caminho_44" data-name="Caminho 44" d="M903.065,688.53v-3.2a.274.274,0,0,1,.287-.287.268.268,0,0,1,.279.287v3.19a1.729,1.729,0,1,0,3.447.017v-3.207a.272.272,0,0,1,.279-.287.278.278,0,0,1,.279.287v3.207a2.287,2.287,0,1,1-4.57-.008" transform="translate(-817.15 -619.872)" fill="#888787"/>
      <path id="Caminho_45" data-name="Caminho 45" d="M990.624,690.889v-5.215a.271.271,0,0,1,.279-.278h.287v.008h.972a1.8,1.8,0,1,1,0,3.595h-.972v1.89a.274.274,0,0,1-.287.287.268.268,0,0,1-.279-.287m1.495-2.4a1.248,1.248,0,0,0,1.394-1.291,1.234,1.234,0,0,0-1.386-1.274h-.938v2.565Z" transform="translate(-896.379 -620.189)" fill="#888787"/>
      <path id="Caminho_46" data-name="Caminho 46" d="M1039.812,690.547v-5.215a.268.268,0,0,1,.279-.287.275.275,0,0,1,.287.287v4.978h2.2a.258.258,0,0,1,0,.515h-2.483a.27.27,0,0,1-.279-.278" transform="translate(-940.887 -619.872)" fill="#888787"/>
      <path id="Caminho_47" data-name="Caminho 47" d="M1075.594,690.573a.38.38,0,0,1,.025-.118l1.951-5.047a.5.5,0,0,1,.465-.372.5.5,0,0,1,.473.38l1.926,5.021a.386.386,0,0,1,.034.143.267.267,0,0,1-.279.262c-.127,0-.211-.059-.279-.227l-.583-1.544h-2.593l-.591,1.552a.289.289,0,0,1-.279.219.267.267,0,0,1-.27-.27Zm3.539-2.017-1.089-2.869h-.017l-1.1,2.869h2.2Z" transform="translate(-973.265 -619.864)" fill="#888787"/>
      <path id="Caminho_48" data-name="Caminho 48" d="M1138.277,690.563v-5.088a.419.419,0,0,1,.43-.439.543.543,0,0,1,.465.3l3.126,4.717h.017v-4.725a.279.279,0,0,1,.287-.287.271.271,0,0,1,.27.287v5.088a.411.411,0,0,1-.414.439.561.561,0,0,1-.49-.3l-3.126-4.717h-.017v4.734a.288.288,0,0,1-.279.287.281.281,0,0,1-.27-.287" transform="translate(-1029.985 -619.864)" fill="#888787"/>
      <path id="Caminho_49" data-name="Caminho 49" d="M1200.522,687.561a2.857,2.857,0,1,1,2.855,2.945,2.865,2.865,0,0,1-2.855-2.945m2.855,2.413a2.427,2.427,0,1,0-2.272-2.413,2.291,2.291,0,0,0,2.272,2.413" transform="translate(-1086.308 -619.468)" fill="#888787"/>
    </g>
  </g>
</svg>
